# xmcd
#
# Track frame offsets: 
#        150
#        20171
#        39996
#        64021
#        87386
#        104817
#        128655
#        160827
#        185428
#        216538
#        231172
#
# Disc length: 3344 seconds
#
# Revision: 0
# Processed by: cddbd v1.5.2PL0 Copyright (c) Steve Scherf et al.
# Submitted via: ExactAudioCopy v1.3
#
DISCID=9c0d0e0b
DTITLE=Kenny Brawner - Cross Water Blues
DYEAR=2020
DGENRE=Blues
TTITLE0=I Never Thought
TTITLE1=Gimme Somethin'
TTITLE2=Goin' Down Slow
TTITLE3=I'm Not Buyin'
TTITLE4=Meet Me in the Alley
TTITLE5=Waiting for Some Good
TTITLE6=Burned Again
TTITLE7=Open Door Policy
TTITLE8=Love Pain
TTITLE9=It's a Shame
TTITLE10=Never Had a Love Like Yours
EXTD=
EXTT0=
EXTT1=
EXTT2=
EXTT3=
EXTT4=
EXTT5=
EXTT6=
EXTT7=
EXTT8=
EXTT9=
EXTT10=
PLAYORDER=
